<svg xmlns="http://www.w3.org/2000/svg" xmlns:xlink="http://www.w3.org/1999/xlink" width="202" height="162" viewBox="0 0 202 162">
  <defs>
    <style>
      .cls-1 {
        clip-path: url(#clip-Artboard_1);
      }

      .cls-2 {
        stroke: rgba(0,0,0,0);
        fill-rule: evenodd;
        fill: url(#linear-gradient);
      }

      .cls-3 {
        fill: #fff;
      }
    </style>
    <linearGradient id="linear-gradient" x1="0.5" x2="0.5" y2="1" gradientUnits="objectBoundingBox">
      <stop offset="0" stop-color="#0097a7"/>
      <stop offset="0.345" stop-color="#32b1a1"/>
      <stop offset="0.744" stop-color="#67cc9b"/>
      <stop offset="1" stop-color="#83da98"/>
      <stop offset="1" stop-color="#ccff90"/>
    </linearGradient>
    <clipPath id="clip-Artboard_1">
      <rect width="202" height="162"/>
    </clipPath>
  </defs>
  <g id="Artboard_1" data-name="Artboard – 1" class="cls-1">
    <rect class="cls-3" width="202" height="162"/>
    <g id="Symbol_217_8" data-name="Symbol 217 – 8" transform="translate(-85 -183)">
      <path id="Path" class="cls-2" d="M12.982,66.089,6.251,55.624l-3-10.6L0,32.012V17.51H3.247V15l3-4.911,6.732-4.611H20.6L15.42,2.2,20.6,0l6.22,2.2,4.257,7.882L22.97,12.508,12.982,22.5,8.655,32.012l-2.4,13.016,2.4,7.857,4.327,8.959,2.437,4.245Z" transform="matrix(0.966, -0.259, 0.259, 0.966, 110.862, 258.964)"/>
      <path id="Path-2" class="cls-2" d="M32.4,37.575l1.632,2.19-1.632,2.5-9.183,2.395-5.442-1.168-4.51-3.723-2.782-2.19L6.156,36.368,0,34.126V28.108l1.274-14.09L0,5.728,6.156,1.892,13.262,0l3.753,3.647.757,8.178L19.148,18.5l2.894,2.762v6.849l-2.894,4.98-1.376,1.038,1.376,3.448,4.066,2.19H27l3.637-2.19Z" transform="matrix(0.966, -0.259, 0.259, 0.966, 159.627, 294.666)"/>
      <path id="Path-3" class="cls-2" d="M10.235,52.024,4.72,44.561,1.082,38.122,0,26.5V18.549L4.72,8.26l5.514-5.565H12.27L14.071,0h4.011V5.438H16.061L14.071,2.695V8.26l-1.8,5.763-3.23-3.107H6.754v3.107l2.286,1.564,1.194,2.961-3.48,5.157L4.72,26.012H3.545L1.082,25l2.463,4.378H4.72L6.754,34.3v6.485l.782,3.772,2.7,1.936v3.138l2.036,2.39Z" transform="matrix(0.966, -0.259, 0.259, 0.966, 140.867, 281.524)"/>
      <path id="Path-8" class="cls-2" d="M28.321,23.3c3.017-.771,9.451-1.646,12.775-4.088,5.179-3.8,10.521-7.451,15.2-11.853,1.09-1.025,2.87-3.09,1.785-4.12-1.294-1.229-3.514.688-5.3.785a67.6,67.6,0,0,1-9.107,0A121.23,121.23,0,0,1,30.012,2.189c-8.679-1.709-8.566-4.5-16.939,1.32C11.084,4.891,2.879,13.786,2.265,14.621c-.9,1.219-3.187,3.41-1.862,4.14L.47,19.9c3.16,1.738,6.33-6.006,9.665-7.259,1.157-.435,4.623-1.269,3.677-.475l.334.669c-.648.544-3.152.8-2.331,1.007,1.613.4,3.362-.762,4.973-.353l2.062-.835c5.411,1.371,6.466,5.026,9.565,9.417Z" transform="matrix(0.966, -0.259, 0.259, 0.966, 112.868, 245.039)"/>
      <path id="Path-11" class="cls-2" d="M22.612,0,17.751.443l-3.8.963L10.13,4.762,8.59,8.094h3.973L15.11,6.94,13.956,9.616,10.13,11.83,6.856,13.315,3.985,17.149,1,19.65,0,21.676l2.827-.618,7.3-3.1,3.2-1.668-.771,2.322L7.587,21.676l2.543,1.281,3.2-1.036,1.776-4.773,1.5-5.32,2.079-5.312L20.779,3.4Z" transform="matrix(0.966, -0.259, 0.259, 0.966, 156.96, 270.518)"/>
      <path id="Path-12" class="cls-2" d="M14.4.245,9.032,3.468,6.87,6.178,5.475,9.012V10.38L4.3,9.012V6.622L5.475,4.147,3.359,5.312v8.527L1.42,11.952,0,7.517.224,5.312,4.3,3.121,14.4,0" transform="matrix(0.966, -0.259, 0.259, 0.966, 156.122, 267.874)"/>
      <path id="Path-5-Copy" class="cls-2" d="M0,90.947,1.134,80.1,8.669,68.423l9.511-15.843L27.953,37.71V23l-2.866-8.616V0l8.195,5.433q5.439,5.242,8.055,7.816a35.012,35.012,0,0,1,5.373,7.319l7.165,11.7,1.9,5.44L53.3,40.994H46.711l5.551,2.421H42.289l6.939,3.141-1.059,1.563L34.134,50.882l9.272,4.266-2.263,3.34-18.01,4.178,11,2.863-9.046,9.088,4.759-4.157,6.9-6.028,4.395,3.99,4.082-11.394,4,3.735,3.035-9.882,3.048,1.7V50.857l3.153-.006-1.376-4.3,1.376-1.679,1.062,10.755v7.034l-2.438,3.906-3.209,6.5-5.7,3.21-5.887,1.668L37.143,80.1l-7.381,2.795-6.629,3.4-6.623,1.4L8.669,90.947,4.993,92.962,0,96.845Z" transform="matrix(0.966, -0.259, 0.259, 0.966, 178.535, 206.406)"/>
      <path id="Path-7" class="cls-2" d="M4.954,13.31l8.892-.962,11.478,7H39.043l9.331-2.706H63.762l5.755-4.291H61.5L54.883,9.953,45.05,5.9,39.841,0l-16,1.031L18.893,3.191l-5.047,1.9,10.738-.417H36.912L31.874,7.211a87.361,87.361,0,0,1,12.463,0q2.875.413-1.07,1.636l6.883,1.741,6.176,2.723L52.9,12.879l-3.717-.468L47.11,12.15,44.337,11.8l-3.582-.451-3.843-.484,2.131,2.444L30.431,10.05l-2.06-.259v3.52l-7.5-4.464H6.213L0,14.675l.7,1.964Z" transform="matrix(0.966, -0.259, 0.259, 0.966, 124.413, 217.083)"/>
      <path id="Path-7-2" data-name="Path-7" class="cls-2" d="M61.064,4.372,64.238,0V1.4L59.55,8.123,58.693,9.7l-11.7,3.355-8.437-2.225.97,3.384-2.052.318-9.178-.76,2.723,1.762-19.336,3,6.688.915,7.1-.224q-3.454,2.263-.577,1.867a87.38,87.38,0,0,0,11.98-3.435l-4.143,3.832,11.85-3.4L54.783,14.73l-4.329,3.213-4.164,3.44L31.2,26.783l-6.634-4.238L14,21.362,6.97,20.885,0,10.625l7.629,2.426,4.966-.53,6.7-1.695,7.333-2.859L39.819,4.187,52.781,7.749Z" transform="matrix(0.966, -0.259, 0.259, 0.966, 190.365, 296.948)"/>
      <path id="Path-6" class="cls-2" d="M1.375,26.858l3.252-8.093L9,11.438l6.81-6.758,5.768-2.249h2.743L22.627,0,12.846,1.125,7.219,6.1,4.626,8.392,0,16.622V34.573Z" transform="matrix(0.966, -0.259, 0.259, 0.966, 118.127, 264.667)"/>
      <path id="Path-13" class="cls-2" d="M10.721,13.192,18.4,10.8l6.676-4.984L30.433,1.8V0L24.1,1.8,15.339,3.368H0L4.054,6.6l3.5,5.575Z" transform="matrix(0.966, -0.259, 0.259, 0.966, 136.337, 245.444)"/>
      <path id="Path-16" class="cls-2" d="M24.241,0l1.834,7.835-.869,7.706,2.642,17.575L16.509,51.648,8.015,67.5,0,76.793l1.828,7.158L16.509,72.277l2-12.194L24.241,54.9l4.337-7.553a44.8,44.8,0,0,0,6.238-3.531c3.1-2.425,3.959-4.517,5.484-6.08q3.341-3.425,2.826-5.3l1.8-6.4V23.191l-1.8-2.65-1.362-3.247L40.3,14.631l-2.666-2.49L31.772,6.077Z" transform="matrix(0.966, -0.259, 0.259, 0.966, 184.366, 206.756)"/>
    </g>
  </g>
</svg>
